<?xml version="1.0" encoding="iso-8859-1"?>
<!-- Generator: Adobe Illustrator 18.0.0, SVG Export Plug-In . SVG Version: 6.00 Build 0)  -->
<!DOCTYPE svg PUBLIC "-//W3C//DTD SVG 1.1//EN" "http://www.w3.org/Graphics/SVG/1.1/DTD/svg11.dtd">
<svg xmlns="http://www.w3.org/2000/svg" xmlns:xlink="http://www.w3.org/1999/xlink" version="1.1" id="Capa_1" x="0px" y="0px" viewBox="0 0 447.379 447.379" style="enable-background:new 0 0 447.379 447.379;" xml:space="preserve" width="512px" height="512px">
<path d="M446.682,206.693c-10.777-7.712-48.423-29.029-102.316,1.785c-6.528,3.734-14.846,1.466-18.579-5.061  c-3.733-6.528-1.467-14.846,5.061-18.579c12.666-7.242,24.685-12.081,35.902-15.159c-27.716-26.262-32.071-54.437-32.28-55.908  l26.96-3.835l-0.017-0.117c0.212,1.323,5.646,32.661,44.345,55.127c0.203,0.118,0.39,0.253,0.585,0.38  c8.669,0.505,16.351,1.937,22.869,3.72c6.166,1.687,11.648,3.753,16.422,5.91c8.189-38.594-15.06-73.281-49.232-85.668  c-2.108-0.761-3.129-1.897-3.933-3.999c-10.612-28.236-31.285-44.755-60.475-50.596c-7.658-1.527-15.714-1.045-23.6-1.282  c-1.78-0.054-2.942-0.412-4.164-1.751c-30.147-33.143-80.097-36.826-114.677-8.916c4.798,8.957,8.238,17.71,10.309,26.233  c3.943,9.674,25.372,55.851,85.8,87.202c6.675,3.463,9.279,11.682,5.816,18.356c-2.423,4.67-7.176,7.348-12.097,7.348  c-2.112,0-4.255-0.493-6.259-1.533c-37.394-19.4-61.693-43.712-76.947-64.022c-8.037,17.81-24.02,32.967-47.693,45.179  c-1.996,1.03-4.129,1.518-6.231,1.518c-4.934,0-9.694-2.689-12.112-7.376c-3.448-6.683-0.825-14.895,5.858-18.343  c21.634-11.161,34.386-24.52,37.902-39.707c1.605-6.936,1.256-14.106-0.343-21.164c-0.115-0.324-0.192-0.553-0.23-0.665  c-0.273-0.826-0.455-1.66-0.566-2.492c-3.327-11.917-9.978-23.355-16.579-32.617c-30.314-2.446-58.499,5.968-84.158,26.392  c-17.545,13.978-29.236,32.13-35.196,53.833c-0.594,2.158-1.793,3.385-3.523,4.601c-22.311,15.91-34.147,37.343-33.257,65.005  c0.524,16.563,6.738,31.174,17.352,43.87c1.115,1.327,1.737,2.46,1.305,4.306c-6.9,30.334,6.702,60.205,31.198,77.268  c4.974,5.613,10.37,10.866,16.162,15.704c-9.066,22.555-22.765,57.129-25.579,67c-0.188,0.661-0.42,1.408-0.673,2.23  c-1.737,5.637-4.362,14.155-4.134,23.537c0.336,13.838,6.999,24.994,18.759,31.411c9.247,5.046,18.14,7.499,27.189,7.499h0.001  c16.818,0,30.638-8.979,39.57-15.732c11.997-9.073,22.172-20.108,32.012-30.78c5.291-5.738,10.289-11.158,15.431-16.146l5.486-5.314  c12.39-11.993,25.17-24.365,37.369-37.231c10.914-3.815,21.295-8.876,30.974-15.052c19.983,1.741,39.179-3.982,57.547-17.296  c0.865-0.629,1.689-1.316,2.504-2.013c-6.202-3.691-13.064-6.56-19.275-8.711c-0.042-0.014-0.082-0.029-0.124-0.043  c-10.542-3.764-25.781-10.176-36.352-22.34c-8.846-10.178-17.427-28.042-8.079-55.348c2.436-7.114,10.176-10.905,17.292-8.471  c7.114,2.436,10.907,10.178,8.471,17.292c-7.303,21.329,0.482,33.444,27.768,43.2c24.8,8.599,41.676,20.78,50.352,36.306  c21.789,1.773,42.164-5.051,61.023-20.699c1.156-0.956,2.453-1.786,3.761-2.533c22.065-12.603,35.77-31.105,39.352-56.479  C447.63,219.439,447.583,213.022,446.682,206.693z M151.396,351.866l-5.508,5.335c-5.798,5.623-11.343,11.637-16.705,17.453  c-9.274,10.058-18.034,19.557-27.698,26.866c-8.341,6.307-14.466,9.119-19.86,9.119c-3.439,0-7.212-1.147-11.536-3.506  c-1.154-0.629-1.681-0.917-1.744-3.52c-0.099-4.056,1.516-9.295,2.695-13.12c0.328-1.065,0.626-2.037,0.87-2.893  c1.813-6.361,11.624-31.861,25.405-66.09c2.831,0.378,5.715,0.593,8.649,0.593c11.271,0,21.865-2.892,31.091-7.964  c7.657,10.091,18.212,17.853,30.426,22.068C162.111,341.489,156.718,346.715,151.396,351.866z M173.938,243.876  c-1.607,0.408-9.865,2.362-20.244,2.363c-9.586,0.001-20.981-1.666-30.624-7.761c-9.576-6.051-15.869-15.474-18.198-27.248  c-0.72-3.639-2.257-6.059-4.985-7.845c-8.083-5.295-24.058-4.081-30.527-2.664c-8.016,1.76-15.934-3.318-17.689-11.331  c-1.756-8.014,3.318-15.934,11.332-17.689c3.277-0.719,32.617-6.626,53.164,6.833c9.412,6.165,15.584,15.478,17.85,26.932  c0.96,4.849,3.136,6.768,4.925,7.898c8.193,5.178,23.929,2.67,27.694,1.716c7.95-2.021,16.033,2.795,18.05,10.747  C186.702,233.779,181.89,241.86,173.938,243.876z" fill="#FFFFFF"/>
<g>
</g>
<g>
</g>
<g>
</g>
<g>
</g>
<g>
</g>
<g>
</g>
<g>
</g>
<g>
</g>
<g>
</g>
<g>
</g>
<g>
</g>
<g>
</g>
<g>
</g>
<g>
</g>
<g>
</g>
</svg>
